<svg width="1600" height="900" viewBox="0 0 1600 900" fill="none" xmlns="http://www.w3.org/2000/svg">
  <rect width="1600" height="900" fill="#F6FAF8"/>
  <rect x="60" y="60" width="1480" height="780" rx="42" fill="url(#bg)"/>
  <circle cx="1280" cy="220" r="175" fill="#D1FAE5"/>
  <circle cx="1240" cy="660" r="225" fill="#DBEAFE"/>
  <path d="M410 155L610 245V435C610 560 520 635 410 680C300 635 210 560 210 435V245L410 155Z" fill="#0F172A"/>
  <path d="M410 212L558 280V432C558 531 490 589 410 626C330 589 262 531 262 432V280L410 212Z" fill="#1E293B"/>
  <path d="M355 430H465" stroke="#34D399" stroke-width="20" stroke-linecap="round"/>
  <path d="M410 375V485" stroke="#34D399" stroke-width="20" stroke-linecap="round"/>
  <rect x="790" y="190" width="500" height="180" rx="30" fill="#FFFFFF" fill-opacity="0.9"/>
  <path d="M875 275H1185" stroke="#0F172A" stroke-width="18" stroke-linecap="round"/>
  <path d="M875 332H1105" stroke="#0F172A" stroke-width="18" stroke-linecap="round" opacity="0.62"/>
  <rect x="820" y="450" width="230" height="180" rx="28" fill="#FFFFFF" fill-opacity="0.92"/>
  <rect x="1085" y="450" width="230" height="180" rx="28" fill="#FFFFFF" fill-opacity="0.92"/>
  <path d="M885 565L935 510L985 565" stroke="#10B981" stroke-width="18" stroke-linecap="round" stroke-linejoin="round"/>
  <path d="M1140 520H1250" stroke="#0F172A" stroke-width="18" stroke-linecap="round"/>
  <path d="M1140 575H1220" stroke="#0F172A" stroke-width="18" stroke-linecap="round" opacity="0.64"/>
  <defs>
    <linearGradient id="bg" x1="60" y1="60" x2="1540" y2="840" gradientUnits="userSpaceOnUse">
      <stop stop-color="#FFFFFF"/>
      <stop offset="1" stop-color="#EFF6FF"/>
    </linearGradient>
  </defs>
</svg>
