<svg width="1600" height="900" viewBox="0 0 1600 900" fill="none" xmlns="http://www.w3.org/2000/svg">
  <rect width="1600" height="900" fill="#F7FAF9"/>
  <rect x="60" y="60" width="1480" height="780" rx="42" fill="url(#bg)"/>
  <circle cx="1260" cy="230" r="185" fill="#DCFCE7"/>
  <circle cx="1300" cy="650" r="220" fill="#E0F2FE"/>
  <rect x="170" y="160" width="520" height="560" rx="34" fill="#0F172A"/>
  <rect x="240" y="230" width="250" height="18" rx="9" fill="#34D399"/>
  <rect x="240" y="285" width="170" height="140" rx="24" fill="#111827"/>
  <circle cx="325" cy="355" r="44" fill="#34D399"/>
  <path d="M322 330V381" stroke="#0F172A" stroke-width="12" stroke-linecap="round"/>
  <path d="M297 344C307 334 319 329 332 329C351 329 365 338 365 352C365 367 351 374 327 380C303 386 289 394 289 409C289 425 305 435 328 435C343 435 357 430 368 421" stroke="#0F172A" stroke-width="10" stroke-linecap="round"/>
  <rect x="440" y="285" width="170" height="140" rx="24" fill="#111827"/>
  <path d="M482 360H567" stroke="#CBD5E1" stroke-width="14" stroke-linecap="round"/>
  <path d="M482 395H537" stroke="#94A3B8" stroke-width="14" stroke-linecap="round"/>
  <rect x="240" y="470" width="370" height="22" rx="11" fill="#CBD5E1"/>
  <rect x="240" y="520" width="310" height="22" rx="11" fill="#94A3B8"/>
  <rect x="820" y="180" width="470" height="220" rx="30" fill="#FFFFFF" fill-opacity="0.9"/>
  <path d="M900 270H1200" stroke="#0F172A" stroke-width="18" stroke-linecap="round"/>
  <path d="M900 335H1130" stroke="#0F172A" stroke-width="18" stroke-linecap="round" opacity="0.62"/>
  <rect x="860" y="470" width="390" height="190" rx="30" fill="#FFFFFF" fill-opacity="0.92"/>
  <path d="M930 610L1010 530L1085 575L1180 490" stroke="#10B981" stroke-width="20" stroke-linecap="round" stroke-linejoin="round"/>
  <circle cx="930" cy="610" r="15" fill="#10B981"/>
  <circle cx="1010" cy="530" r="15" fill="#10B981"/>
  <circle cx="1085" cy="575" r="15" fill="#10B981"/>
  <circle cx="1180" cy="490" r="15" fill="#10B981"/>
  <defs>
    <linearGradient id="bg" x1="60" y1="60" x2="1540" y2="840" gradientUnits="userSpaceOnUse">
      <stop stop-color="#FFFFFF"/>
      <stop offset="1" stop-color="#ECFDF5"/>
    </linearGradient>
  </defs>
</svg>
