<svg width="1600" height="900" viewBox="0 0 1600 900" fill="none" xmlns="http://www.w3.org/2000/svg">
  <rect width="1600" height="900" fill="#F7FAF9"/>
  <rect x="60" y="60" width="1480" height="780" rx="42" fill="url(#bg)"/>
  <circle cx="1320" cy="200" r="170" fill="#DCFCE7"/>
  <circle cx="1210" cy="650" r="240" fill="#E0F2FE"/>
  <rect x="180" y="170" width="470" height="520" rx="34" fill="#FFFFFF" fill-opacity="0.92"/>
  <circle cx="415" cy="320" r="105" fill="#0F172A"/>
  <rect x="295" y="455" width="240" height="22" rx="11" fill="#0F172A"/>
  <rect x="255" y="505" width="320" height="16" rx="8" fill="#64748B"/>
  <rect x="290" y="553" width="250" height="16" rx="8" fill="#94A3B8"/>
  <rect x="760" y="185" width="590" height="180" rx="30" fill="#0F172A"/>
  <rect x="820" y="245" width="190" height="18" rx="9" fill="#34D399"/>
  <rect x="820" y="295" width="430" height="14" rx="7" fill="#CBD5E1"/>
  <rect x="760" y="420" width="280" height="220" rx="30" fill="#FFFFFF" fill-opacity="0.88"/>
  <rect x="1070" y="420" width="280" height="220" rx="30" fill="#FFFFFF" fill-opacity="0.88"/>
  <path d="M860 570L920 470L980 570" stroke="#10B981" stroke-width="20" stroke-linecap="round" stroke-linejoin="round"/>
  <path d="M1160 530H1260" stroke="#0F172A" stroke-width="20" stroke-linecap="round"/>
  <path d="M1160 585H1230" stroke="#0F172A" stroke-width="20" stroke-linecap="round" opacity="0.65"/>
  <defs>
    <linearGradient id="bg" x1="60" y1="60" x2="1540" y2="840" gradientUnits="userSpaceOnUse">
      <stop stop-color="#FFFFFF"/>
      <stop offset="1" stop-color="#F0FDF4"/>
    </linearGradient>
  </defs>
</svg>
