<svg width="1600" height="900" viewBox="0 0 1600 900" fill="none" xmlns="http://www.w3.org/2000/svg">
  <rect width="1600" height="900" fill="#F5F8F7"/>
  <rect x="60" y="60" width="1480" height="780" rx="42" fill="url(#bg)"/>
  <circle cx="1280" cy="230" r="190" fill="#D1FAE5" fill-opacity="0.8"/>
  <circle cx="1240" cy="640" r="230" fill="#BFDBFE" fill-opacity="0.55"/>
  <rect x="180" y="170" width="620" height="380" rx="28" fill="#0F172A"/>
  <rect x="220" y="220" width="310" height="18" rx="9" fill="#34D399"/>
  <rect x="220" y="270" width="420" height="14" rx="7" fill="#CBD5E1"/>
  <rect x="220" y="306" width="350" height="14" rx="7" fill="#94A3B8"/>
  <rect x="220" y="390" width="180" height="110" rx="20" fill="#111827"/>
  <rect x="420" y="390" width="180" height="110" rx="20" fill="#111827"/>
  <rect x="620" y="390" width="120" height="110" rx="20" fill="#111827"/>
  <path d="M925 255H1295" stroke="#0F172A" stroke-width="18" stroke-linecap="round"/>
  <path d="M925 325H1215" stroke="#0F172A" stroke-width="18" stroke-linecap="round" opacity="0.72"/>
  <path d="M925 395H1325" stroke="#0F172A" stroke-width="18" stroke-linecap="round" opacity="0.52"/>
  <rect x="920" y="495" width="360" height="210" rx="28" fill="#FFFFFF" fill-opacity="0.84"/>
  <path d="M985 600L1065 520L1140 585L1225 470" stroke="#10B981" stroke-width="22" stroke-linecap="round" stroke-linejoin="round"/>
  <circle cx="985" cy="600" r="17" fill="#10B981"/>
  <circle cx="1065" cy="520" r="17" fill="#10B981"/>
  <circle cx="1140" cy="585" r="17" fill="#10B981"/>
  <circle cx="1225" cy="470" r="17" fill="#10B981"/>
  <defs>
    <linearGradient id="bg" x1="60" y1="60" x2="1540" y2="840" gradientUnits="userSpaceOnUse">
      <stop stop-color="#FFFFFF"/>
      <stop offset="1" stop-color="#ECFDF5"/>
    </linearGradient>
  </defs>
</svg>
